<svg width="39" height="57" viewBox="0 0 39 57" fill="none" xmlns="http://www.w3.org/2000/svg">
<path d="M27.0345 15.2751C27.0345 15.2751 35.3746 4.10458 32.8276 1.77132C31.5319 0.58395 29.4483 3.70043 26.069 3.70043C22.6897 3.70043 22.6897 0.806763 19.3104 0.806763C15.9311 0.806763 15.9311 3.70043 12.5518 3.70043C9.17244 3.70043 7.08789 0.585879 5.79313 1.77132C3.24513 4.10362 11.5862 15.2751 11.5862 15.2751L19.3104 17.2042L27.0345 15.2751Z" fill="#425DAB"/>
<path d="M29.3228 20.0978C34.8668 25.7462 38.6207 31.4419 38.6207 39.3888C38.6207 52.8925 29.9793 56.7507 19.3103 56.7507C8.64138 56.7507 0 52.8925 0 39.3888C0 31.4419 3.75393 25.7462 9.29793 20.0978L19.3103 18.1687L29.3228 20.0978Z" fill="#C465E5" fill-opacity="0.59"/>
<path d="M29.4482 15.2751C30.7813 15.2751 31.862 16.3547 31.862 17.6865C31.862 19.0182 30.7813 20.0978 29.4482 20.0978H9.17234C7.83924 20.0978 6.75854 19.0182 6.75854 17.6865C6.75854 16.3547 7.83924 15.2751 9.17234 15.2751H29.4482Z" fill="#C465E5"/>
<path d="M29.3507 38.5225H26.2751V35.5695H29.3507C29.8129 35.5695 30.1875 35.1957 30.1875 34.7339C30.1875 34.2721 29.8129 33.898 29.3507 33.898H26.2751V29.8006C26.2751 29.2025 26.1568 28.7635 25.9235 28.4961C25.7019 28.2417 25.4104 28.1233 25.0069 28.1233C24.6218 28.1233 24.3413 28.2409 24.1239 28.4937C23.8934 28.7614 23.7764 29.2012 23.7764 29.8009V33.8985H17.991L15.531 30.1798C15.3205 29.848 15.1226 29.5371 14.9303 29.2387C14.7572 28.97 14.5884 28.7512 14.429 28.5878C14.2878 28.4431 14.127 28.3312 13.9388 28.2452C13.7613 28.1642 13.5356 28.1236 13.2686 28.1236C12.928 28.1236 12.6189 28.2168 12.3229 28.4083C12.03 28.5977 11.8275 28.8318 11.7038 29.1242C11.5952 29.4021 11.5378 29.8278 11.5378 30.3774V33.8982H8.49269C8.03063 33.8983 7.65625 34.2724 7.65625 34.7341C7.65625 35.1959 8.03063 35.5698 8.49274 35.5698H11.5378V38.523H8.49274C8.03063 38.523 7.65625 38.8971 7.65625 39.359C7.65625 39.8206 8.03063 40.1943 8.49274 40.1943H11.5378V44.8725C11.5378 45.4529 11.6599 45.8875 11.9017 46.1636C12.1317 46.4269 12.4233 46.5491 12.8192 46.5491C13.2012 46.5491 13.4905 46.4264 13.7304 46.1626C13.9761 45.8923 14.1004 45.4581 14.1004 44.8725V40.1943H19.3356L22.1686 44.5341C22.3656 44.821 22.569 45.1106 22.7719 45.3945C22.9549 45.6495 23.1546 45.8741 23.3652 46.0617C23.555 46.2315 23.7584 46.3558 23.9698 46.4317C24.1875 46.51 24.4418 46.5497 24.7241 46.5497C25.4903 46.5497 26.275 46.3154 26.275 44.5776V40.1943H29.3507C29.8128 40.1943 30.1874 39.8201 30.1874 39.3584C30.1875 38.8968 29.8129 38.5225 29.3507 38.5225ZM23.7764 35.5695V38.5225H21.0504L19.0972 35.5695H23.7764ZM14.1004 32.1765L15.2246 33.898H14.1004V32.1765ZM14.1004 38.5225V35.5695H16.3161L18.2442 38.5225H14.1004ZM23.7764 42.6442L22.1563 40.1943H23.7764V42.6442Z" fill="#425DAB"/>
</svg>
