<svg width="46" height="47" viewBox="0 0 46 47" fill="none" xmlns="http://www.w3.org/2000/svg">
<path d="M41.7498 27.445L43.226 35.8078L35.2384 38.7123L30.9882 46.0666L23.0306 43.173V0.83432L29.5121 6.26817H38.0125L39.4887 14.631L46 20.0907L41.7498 27.445Z" fill="#C465E5" fill-opacity="0.59"/>
<path d="M23.0306 0.834279V43.173L23.0007 43.1621L15.0118 46.0666L10.7616 38.7122L2.77407 35.8078L4.25021 27.4449L0 20.0906L6.51137 14.6309L7.98751 6.26813H16.4879L23.0007 0.809814L23.0306 0.834279Z" fill="#C465E5" fill-opacity="0.59"/>
<path d="M31.708 21.0718L23.0306 27.5726V22.4772L29.2591 17.8099L31.708 21.0718Z" fill="#425DAB"/>
<path d="M23.0307 22.4773V27.5727L19.2934 30.3724L13.9684 24.1653L17.0663 21.5123L19.9043 24.8191L23.0307 22.4773Z" fill="#425DAB"/>
</svg>
