<svg width="40" height="40" viewBox="0 0 40 40" fill="none" xmlns="http://www.w3.org/2000/svg">
<path d="M4.16664 6.66663H35.8333C38.1345 6.66663 39.9999 8.53209 39.9999 10.8333V29.1666C39.9999 31.4678 38.1345 33.3333 35.8333 33.3333H4.16664C1.86547 33.3333 0 31.4679 0 29.1666V10.8333C0 8.5321 1.86547 6.66663 4.16664 6.66663Z" fill="#425DAB"/>
<path d="M40 11.6666H0V18.3333H40V11.6666Z" fill="#C465E5" fill-opacity="0.59"/>
<path d="M12.5 25H5.83336C5.37313 25 5 24.6268 5 24.1666C5 23.7064 5.37313 23.3333 5.83336 23.3333H12.5C12.9602 23.3333 13.3334 23.7064 13.3334 24.1666C13.3334 24.6268 12.9602 25 12.5 25Z" fill="#FAFAFA"/>
<path d="M17.5 28.3333H5.83336C5.37313 28.3333 5 27.9602 5 27.5C5 27.0397 5.37313 26.6666 5.83336 26.6666H17.5C17.9602 26.6666 18.3334 27.0397 18.3334 27.5C18.3334 27.9602 17.9602 28.3333 17.5 28.3333Z" fill="#FAFAFA"/>
</svg>
