<svg width="326" height="230" viewBox="0 0 326 230" fill="none" xmlns="http://www.w3.org/2000/svg">
<path d="M91.7914 98.4903C93.3229 98.4625 94.8518 98.6286 96.3413 98.9849C97.4424 99.2464 98.4816 99.7202 99.4004 100.38C100.162 100.943 100.758 101.7 101.127 102.57C101.497 103.484 101.68 104.463 101.666 105.449C101.668 106.015 101.584 106.577 101.418 107.118C101.249 107.659 100.987 108.166 100.643 108.617C100.259 109.113 99.7987 109.546 99.2803 109.9C98.661 110.32 97.9893 110.658 97.2823 110.904C98.9783 111.317 100.234 111.981 101.05 112.898C101.891 113.893 102.328 115.167 102.274 116.468C102.282 117.52 102.064 118.561 101.635 119.521C101.204 120.47 100.566 121.312 99.7682 121.986C98.8737 122.731 97.8408 123.293 96.7285 123.639C95.3939 124.053 94.0019 124.252 92.6046 124.23H82.3044V98.4903H91.7914ZM88.2871 102.957V109.316H91.3848C91.9843 109.322 92.583 109.274 93.1738 109.174C93.6537 109.099 94.1143 108.931 94.5291 108.679C94.8995 108.444 95.194 108.107 95.3771 107.709C95.5848 107.221 95.6839 106.694 95.6675 106.164C95.6855 105.639 95.6081 105.115 95.4391 104.618C95.2987 104.233 95.0532 103.894 94.7305 103.641C94.3722 103.374 93.9576 103.193 93.5184 103.111C92.9451 102.995 92.3609 102.94 91.7759 102.949L88.2871 102.957ZM92.5 119.714C93.1584 119.737 93.8152 119.636 94.4362 119.416C94.8778 119.251 95.2753 118.987 95.5978 118.644C95.8759 118.336 96.0764 117.966 96.1825 117.566C96.2872 117.168 96.3405 116.759 96.3413 116.348C96.3475 115.918 96.2847 115.488 96.1554 115.077C96.0358 114.707 95.8161 114.377 95.5204 114.123C95.1693 113.839 94.7613 113.633 94.3239 113.52C93.7113 113.367 93.081 113.297 92.4497 113.312H88.2871V119.718L92.5 119.714ZM122.363 105.909V124.219H118.955C118.659 124.244 118.364 124.166 118.119 123.999C117.874 123.831 117.695 123.584 117.612 123.299L117.29 122.241C116.946 122.574 116.58 122.884 116.194 123.168C115.817 123.446 115.411 123.683 114.982 123.875C114.533 124.075 114.065 124.229 113.584 124.335C113.046 124.448 112.497 124.504 111.946 124.501C111.031 124.518 110.123 124.34 109.282 123.979C108.53 123.646 107.861 123.148 107.327 122.523C106.783 121.874 106.375 121.124 106.126 120.316C105.847 119.413 105.71 118.472 105.72 117.527V105.909H111.203V117.527C111.156 118.278 111.376 119.022 111.823 119.629C112.05 119.883 112.332 120.082 112.648 120.21C112.964 120.339 113.306 120.394 113.646 120.371C114.231 120.373 114.809 120.241 115.335 119.984C115.897 119.714 116.418 119.367 116.884 118.953V105.909H122.363ZM144.562 105.909L134.754 128.967C134.628 129.283 134.421 129.561 134.154 129.771C133.81 129.968 133.414 130.057 133.019 130.026H128.915L132.454 122.612L125.128 105.909H129.976C130.326 105.886 130.674 105.985 130.959 106.191C131.181 106.367 131.355 106.597 131.463 106.859L134.475 114.753C134.759 115.472 134.989 116.21 135.164 116.963L135.552 115.831C135.678 115.455 135.814 115.084 135.958 114.718L138.669 106.859C138.782 106.58 138.98 106.342 139.234 106.179C139.494 106.001 139.802 105.907 140.117 105.909H144.562Z" fill="black" fill-opacity="0.3"/>
<path d="M156.438 98.4903C158.022 98.4575 159.601 98.6753 161.116 99.1355C162.301 99.4981 163.398 100.102 164.338 100.909C165.164 101.636 165.804 102.55 166.204 103.575C166.613 104.635 166.818 105.762 166.808 106.898C166.821 108.103 166.611 109.3 166.189 110.429C165.784 111.484 165.135 112.428 164.295 113.184C163.355 113.998 162.255 114.607 161.066 114.973C159.568 115.433 158.005 115.65 156.438 115.618H153.341V124.219H147.339V98.4903H156.438ZM156.438 111.117C157.987 111.117 159.108 110.746 159.799 110.004C160.481 109.262 160.826 108.227 160.826 106.913C160.833 106.366 160.742 105.822 160.558 105.306C160.39 104.833 160.114 104.406 159.753 104.058C159.364 103.695 158.9 103.422 158.394 103.258C157.762 103.056 157.102 102.959 156.438 102.972H153.341V111.132L156.438 111.117ZM178.309 105.627C179.607 105.609 180.897 105.831 182.115 106.28C183.219 106.688 184.223 107.326 185.062 108.15C185.899 108.99 186.55 109.997 186.971 111.105C187.441 112.356 187.672 113.684 187.653 115.019C187.672 116.365 187.441 117.703 186.971 118.964C186.563 120.079 185.917 121.092 185.079 121.934C184.241 122.775 183.23 123.426 182.115 123.84C179.646 124.721 176.948 124.721 174.479 123.84C173.368 123.421 172.356 122.778 171.505 121.951C170.653 121.105 169.992 120.087 169.569 118.964C169.097 117.703 168.866 116.365 168.888 115.019C168.866 113.684 169.098 112.356 169.569 111.105C169.994 109.992 170.654 108.984 171.505 108.15C172.355 107.326 173.368 106.689 174.479 106.28C175.705 105.83 177.003 105.609 178.309 105.627ZM178.309 120.44C179.571 120.44 180.5 119.996 181.097 119.107C181.693 118.218 181.993 116.867 181.995 115.054C181.995 113.251 181.697 111.903 181.101 111.009C180.504 110.115 179.575 109.674 178.313 109.687C177.022 109.687 176.072 110.128 175.463 111.009C174.853 111.89 174.553 113.238 174.56 115.054C174.56 116.857 174.861 118.208 175.463 119.107C176.064 120.006 177.013 120.45 178.309 120.44ZM217.949 105.909L212.249 124.219H207.792C207.571 124.225 207.356 124.149 207.188 124.006C206.994 123.812 206.859 123.567 206.801 123.299L204.183 114.169C204.051 113.76 203.935 113.354 203.835 112.952C203.734 112.566 203.645 112.145 203.564 111.735C203.478 112.145 203.389 112.558 203.289 112.972C203.188 113.385 203.072 113.794 202.944 114.208L200.288 123.299C200.238 123.567 200.093 123.807 199.88 123.977C199.666 124.146 199.398 124.232 199.126 124.219H194.866L189.167 105.909H193.554C193.902 105.896 194.245 105.991 194.537 106.179C194.786 106.341 194.976 106.58 195.076 106.859L196.919 115.073C197.069 115.697 197.204 116.299 197.325 116.882C197.442 117.465 197.55 118.041 197.643 118.64C197.798 118.048 197.96 117.48 198.131 116.882C198.301 116.283 198.487 115.695 198.688 115.073L200.989 106.844C201.087 106.566 201.273 106.327 201.519 106.164C201.789 105.977 202.112 105.881 202.441 105.889H204.88C205.228 105.878 205.572 105.974 205.864 106.164C206.112 106.326 206.301 106.565 206.402 106.844L208.597 115.073C208.776 115.697 208.95 116.302 209.12 116.889C209.291 117.48 209.445 118.072 209.589 118.674C209.682 118.087 209.794 117.515 209.926 116.909C210.057 116.302 210.201 115.707 210.367 115.073L212.303 106.859C212.403 106.582 212.589 106.344 212.834 106.179C213.103 105.995 213.425 105.9 213.751 105.909H217.949ZM225.116 116.043C225.295 117.573 225.761 118.682 226.514 119.37C227.317 120.079 228.363 120.45 229.434 120.405C229.991 120.417 230.547 120.339 231.08 120.174C231.503 120.036 231.915 119.866 232.311 119.663L233.302 119.15C233.595 119 233.919 118.922 234.247 118.922C234.439 118.91 234.63 118.946 234.803 119.028C234.977 119.11 235.126 119.234 235.238 119.389L236.83 121.352C236.3 121.965 235.683 122.498 234.998 122.932C234.366 123.328 233.689 123.647 232.981 123.883C232.309 124.11 231.617 124.27 230.913 124.362C230.258 124.448 229.599 124.491 228.938 124.493C227.704 124.502 226.477 124.29 225.318 123.867C224.212 123.462 223.205 122.827 222.363 122.005C221.486 121.127 220.805 120.073 220.365 118.914C219.849 117.549 219.599 116.099 219.629 114.641C219.623 113.453 219.836 112.274 220.257 111.163C220.661 110.084 221.281 109.098 222.08 108.267C222.879 107.435 223.84 106.774 224.903 106.326C227.18 105.421 229.706 105.364 232.021 106.168C232.995 106.522 233.881 107.082 234.619 107.81C235.367 108.559 235.946 109.458 236.319 110.449C236.742 111.58 236.949 112.78 236.931 113.988C236.934 114.325 236.916 114.661 236.876 114.996C236.854 115.213 236.788 115.423 236.683 115.614C236.594 115.761 236.457 115.873 236.296 115.931C236.1 115.996 235.894 116.026 235.688 116.02L225.116 116.043ZM232.017 112.863C232.018 112.434 231.962 112.007 231.85 111.592C231.744 111.192 231.557 110.817 231.3 110.491C231.032 110.16 230.69 109.895 230.301 109.718C229.829 109.505 229.314 109.402 228.795 109.417C228.349 109.392 227.903 109.459 227.483 109.612C227.064 109.766 226.68 110.003 226.356 110.309C225.71 111.025 225.304 111.923 225.194 112.879L232.017 112.863ZM245.752 108.733C246.244 107.839 246.908 107.051 247.707 106.415C248.433 105.852 249.328 105.553 250.247 105.565C250.966 105.532 251.675 105.737 252.265 106.148L251.912 110.174C251.884 110.381 251.779 110.57 251.618 110.704C251.453 110.807 251.259 110.857 251.064 110.846C250.968 110.846 250.844 110.846 250.677 110.827L250.197 110.785L249.694 110.731C249.538 110.713 249.382 110.704 249.225 110.704C248.522 110.664 247.83 110.892 247.289 111.341C246.76 111.834 246.346 112.437 246.077 113.107V124.219H240.621V105.909H243.877C244.107 105.904 244.335 105.927 244.559 105.978C244.727 106.017 244.884 106.093 245.02 106.198C245.146 106.301 245.243 106.434 245.302 106.585C245.376 106.779 245.432 106.979 245.469 107.184L245.752 108.733ZM251.754 121.445C251.75 121.039 251.83 120.636 251.99 120.262C252.145 119.904 252.368 119.58 252.648 119.308C253.243 118.735 254.04 118.418 254.867 118.427C255.286 118.422 255.701 118.504 256.087 118.667C256.454 118.817 256.79 119.035 257.078 119.308C257.368 119.583 257.597 119.915 257.753 120.282C257.908 120.65 257.985 121.046 257.98 121.445C257.984 121.855 257.903 122.261 257.744 122.639C257.59 123.001 257.363 123.328 257.078 123.601C256.792 123.874 256.455 124.089 256.087 124.234C255.699 124.391 255.285 124.47 254.867 124.466C254.443 124.471 254.022 124.392 253.628 124.234C253.262 124.09 252.929 123.875 252.648 123.601C252.367 123.327 252.143 123 251.99 122.639C251.83 122.261 251.75 121.855 251.754 121.445ZM266.619 107.887C266.966 107.559 267.332 107.252 267.715 106.967C268.091 106.685 268.498 106.445 268.927 106.253C269.375 106.05 269.844 105.896 270.325 105.793C270.863 105.677 271.412 105.622 271.963 105.627C272.876 105.608 273.784 105.784 274.623 106.144C275.368 106.478 276.029 106.973 276.559 107.593C277.107 108.239 277.517 108.99 277.763 109.799C278.035 110.701 278.166 111.64 278.151 112.581V124.219H272.706V112.581C272.75 111.834 272.531 111.094 272.087 110.491C271.863 110.23 271.582 110.025 271.266 109.891C270.949 109.757 270.606 109.698 270.263 109.718C269.678 109.716 269.1 109.848 268.575 110.105C268.013 110.375 267.491 110.722 267.026 111.136V124.219H261.554V105.909H264.954C265.249 105.884 265.544 105.962 265.789 106.128C266.034 106.295 266.213 106.541 266.298 106.824L266.619 107.887ZM298.914 106.473V108.466C298.921 108.598 298.902 108.73 298.858 108.855C298.814 108.98 298.746 109.094 298.658 109.193C298.408 109.405 298.104 109.546 297.779 109.598L296.455 109.9C296.524 110.161 296.58 110.425 296.621 110.692C296.664 110.973 296.685 111.257 296.683 111.542C296.697 112.399 296.501 113.247 296.11 114.011C295.728 114.739 295.19 115.375 294.534 115.873C293.825 116.408 293.025 116.81 292.172 117.059C291.225 117.334 290.242 117.468 289.256 117.457C288.974 117.457 288.695 117.457 288.424 117.43C288.156 117.414 287.89 117.382 287.626 117.334C287.462 117.408 287.321 117.524 287.215 117.669C287.11 117.815 287.045 117.986 287.026 118.164C287.025 118.313 287.073 118.458 287.162 118.578C287.252 118.697 287.378 118.784 287.521 118.825C287.942 118.982 288.383 119.077 288.83 119.107C289.372 119.161 289.992 119.196 290.681 119.215C291.37 119.235 292.075 119.273 292.795 119.339C293.506 119.403 294.212 119.512 294.91 119.663C295.563 119.804 296.188 120.055 296.757 120.405C297.299 120.749 297.749 121.218 298.069 121.773C298.423 122.445 298.594 123.198 298.565 123.956C298.56 124.799 298.353 125.628 297.961 126.375C297.533 127.196 296.928 127.914 296.191 128.477C295.329 129.13 294.36 129.628 293.326 129.949C292.065 130.338 290.75 130.526 289.43 130.505C288.177 130.526 286.925 130.39 285.705 130.099C284.789 129.881 283.912 129.522 283.107 129.033C282.471 128.653 281.939 128.122 281.558 127.488C281.236 126.942 281.065 126.32 281.063 125.687C281.037 124.946 281.29 124.223 281.771 123.659C282.316 123.069 282.996 122.621 283.754 122.353C283.32 122.096 282.956 121.738 282.693 121.309C282.415 120.808 282.281 120.24 282.306 119.667C282.308 119.376 282.357 119.086 282.449 118.81C282.551 118.494 282.702 118.197 282.898 117.929C283.12 117.623 283.381 117.346 283.672 117.106C284.007 116.83 284.375 116.599 284.768 116.418C283.857 115.949 283.079 115.259 282.503 114.413C281.94 113.551 281.651 112.539 281.674 111.511C281.661 110.648 281.861 109.795 282.255 109.027C282.645 108.293 283.192 107.654 283.858 107.157C284.579 106.622 285.391 106.221 286.255 105.974C287.227 105.689 288.236 105.548 289.248 105.557C290.678 105.53 292.095 105.833 293.388 106.442L298.914 106.473ZM293.492 124.887C293.501 124.69 293.45 124.494 293.346 124.326C293.241 124.158 293.089 124.025 292.908 123.945C292.426 123.725 291.912 123.586 291.386 123.531C290.69 123.441 289.989 123.391 289.287 123.38C288.513 123.361 287.738 123.319 286.964 123.245C286.644 123.456 286.361 123.717 286.124 124.018C285.906 124.299 285.79 124.644 285.794 124.999C285.791 125.244 285.848 125.485 285.961 125.703C286.1 125.941 286.308 126.132 286.557 126.251C286.916 126.43 287.3 126.552 287.696 126.614C288.296 126.712 288.904 126.756 289.512 126.746C290.16 126.756 290.808 126.708 291.448 126.603C291.87 126.538 292.279 126.407 292.66 126.216C292.922 126.085 293.14 125.879 293.287 125.625C293.421 125.401 293.499 125.148 293.516 124.887H293.492ZM289.233 114.1C290.139 114.1 290.782 113.876 291.204 113.42C291.624 112.932 291.843 112.304 291.816 111.662C291.851 111.022 291.631 110.394 291.204 109.915C290.797 109.49 290.139 109.282 289.233 109.282C288.327 109.282 287.684 109.49 287.258 109.915C286.831 110.394 286.611 111.022 286.646 111.662C286.642 111.992 286.693 112.321 286.797 112.635C286.895 112.924 287.055 113.188 287.266 113.408C287.494 113.635 287.769 113.809 288.071 113.918C288.452 114.051 288.853 114.113 289.256 114.1H289.233Z" fill="black" fill-opacity="0.3"/>
<path d="M69.1311 120.935C71.7123 120.935 73.8049 118.847 73.8049 116.271C73.8049 113.696 71.7123 111.608 69.1311 111.608C66.5498 111.608 64.4573 113.696 64.4573 116.271C64.4573 118.847 66.5498 120.935 69.1311 120.935Z" fill="black" fill-opacity="0.1"/>
<path d="M63.4428 120.985C66.0241 120.985 68.1166 118.897 68.1166 116.321C68.1166 113.746 66.0241 111.658 63.4428 111.658C60.8616 111.658 58.769 113.746 58.769 116.321C58.769 118.897 60.8616 120.985 63.4428 120.985Z" fill="black" fill-opacity="0.1"/>
<path d="M76.9956 99.4331H40.5462C40.1185 99.4331 39.7717 99.7791 39.7717 100.206V122.67C39.7717 123.096 40.1185 123.442 40.5462 123.442H76.9956C77.4233 123.442 77.77 123.096 77.77 122.67V100.206C77.77 99.7791 77.4233 99.4331 76.9956 99.4331Z" fill="black" fill-opacity="0.3"/>
<path d="M40.248 103.884H77.3441H40.248ZM40.248 108.408H77.3441H40.248Z" fill="black" fill-opacity="0.3"/>
<path d="M40.248 108.408H77.3441M40.248 103.884H77.3441H40.248Z" stroke="black" stroke-opacity="0.3" stroke-miterlimit="10"/>
<path d="M60.5541 95.7469H52.2017L76.287 69.6475L67.6906 91.1221H76.287L52.2017 116.92L60.5541 95.7469Z" fill="black" fill-opacity="0.2"/>
</svg>
