<svg width="214" height="151" viewBox="0 0 214 151" fill="none" xmlns="http://www.w3.org/2000/svg">
<path d="M37.4065 77.859H34.824V72.1414H37.4167V67.8672C37.4167 62.8143 39.407 59.6841 47.0759 59.6841H47.4369V65.881H46.8955C45.3881 65.881 44.7247 66.5431 44.7247 68.5293V72.1414H47.3784V77.859H44.7043V104.217H37.4065V77.859ZM48.5019 60.8788H55.9217V68.1082H48.5019V60.8788ZM48.5629 72.1338H55.8607V104.217H48.5629V72.1414V72.1338Z" fill="black" fill-opacity="0.3"/>
<path d="M57.79 59.6841H65.0878V104.217H57.79V59.6841Z" fill="black" fill-opacity="0.3"/>
<path d="M66.7758 72.1415H74.132V75.6319C75.4589 73.8259 78.1736 71.7205 80.6444 71.7205C83.0566 71.7205 84.5665 72.6235 85.0469 75.6928C86.5543 73.7066 89.5105 71.7205 91.7423 71.7205C94.696 71.7205 96.3838 72.9228 96.3838 78.3994V104.217H89.0885V80.9867C89.0885 79.3633 88.8344 78.5795 87.8811 78.5795C87.0982 78.5795 86.0128 79.3024 85.2274 80.0837V104.217H77.9321V80.9867C77.9321 79.3633 77.6907 78.5795 76.7858 78.5795C75.8808 78.5795 74.7955 79.3633 74.132 80.0837V104.217H66.7758V72.1415Z" fill="black" fill-opacity="0.3"/>
<path d="M98.9764 59.6841H101.572V76.3522C102.899 74.5461 105.189 72.1998 107.962 72.1998C110.918 72.1998 112.365 74.0642 112.365 79.7817V104.214H109.772V80.0253C109.772 76.5932 109.591 74.6679 107.421 74.6679C105.672 74.6679 103.321 76.715 101.574 79.0005V104.217H98.9764V59.6841Z" fill="black" fill-opacity="0.3"/>
<path d="M115.079 88.4494C115.079 77.4963 117.07 72.2024 122.316 72.2024C127.502 72.2024 129.551 77.4963 129.551 88.4494C129.551 99.2834 127.502 104.638 122.316 104.638C117.131 104.638 115.079 99.2834 115.079 88.4494ZM126.899 88.3886C126.899 81.0476 126.355 74.6096 122.324 74.6096C118.463 74.6096 117.68 80.5048 117.68 88.3886C117.68 95.7904 118.221 102.231 122.324 102.231C126.175 102.226 126.899 96.3916 126.899 88.3886Z" fill="black" fill-opacity="0.3"/>
<path d="M132.265 96.9345V72.6235H134.858V96.6935C134.858 100.126 135.038 102.051 137.209 102.051C138.958 102.051 141.309 100.004 143.055 97.7183V72.6235H145.651V104.217H143.058V100.412C141.731 102.226 139.441 104.509 136.668 104.509C133.704 104.509 132.265 102.652 132.265 96.9345Z" fill="black" fill-opacity="0.3"/>
<path d="M147.158 98.3193L149.446 97.4772C150.592 100.605 152.28 102.35 154.934 102.35C157.527 102.35 158.673 100.546 158.673 97.7841C158.673 94.5956 156.502 92.0082 154.148 89.1799C151.497 85.9913 148.727 82.7318 148.727 78.6351C148.727 74.8429 151.2 72.0754 154.878 72.0754C158.315 72.0754 160.063 74.3026 161.451 78.034L159.164 78.8761C158.259 76.3395 157.173 74.4827 154.88 74.4827C152.771 74.4827 151.383 76.2279 151.383 78.6351C151.383 82.1255 153.856 84.7738 156.146 87.4829C158.861 90.7805 161.334 93.9817 161.334 97.7714C161.334 101.866 159.103 104.752 154.941 104.752C151.08 104.762 148.788 102.652 147.158 98.3193Z" fill="black" fill-opacity="0.3"/>
<path d="M162.839 88.4494C162.839 77.2553 164.888 72.2024 170.076 72.2024C175.986 72.2024 176.83 80.3196 176.83 88.1476V88.4494H165.432C165.432 97.2972 166.337 102.231 170.134 102.231C172.91 102.231 173.632 100.184 174.296 95.552L176.583 95.7904C175.8 102.411 173.266 104.638 170.01 104.638C164.888 104.638 162.839 99.5218 162.839 88.4494ZM174.176 86.1665C174.115 79.726 173.393 74.6122 170.076 74.6122C166.698 74.6122 165.854 78.2827 165.432 86.1665H174.176Z" fill="black" fill-opacity="0.3"/>
<path d="M106.025 64.4836C106.025 60.699 108.585 59.3394 110.789 59.3394C113.254 59.3394 114.302 60.699 114.899 62.2286L112.954 62.9084C112.563 61.7897 111.854 61.2494 110.751 61.2494C109.444 61.2494 108.341 62.1068 108.341 64.4735C108.341 66.5814 109.2 67.7356 110.715 67.7356C111.76 67.7356 112.494 67.4185 113.031 66.0208L114.935 66.7108C114.225 68.2962 113.048 69.6177 110.659 69.6177C108.361 69.6279 106.025 68.1008 106.025 64.4836Z" fill="black" fill-opacity="0.3"/>
<path d="M116.282 55.8057H118.633V57.7994H116.282V55.8057ZM116.3 59.5142H118.615V69.407H116.3V59.5142Z" fill="black" fill-opacity="0.3"/>
<path d="M120.725 59.5243H123.043V60.8788C123.51 60.3902 124.072 60.0028 124.695 59.7409C125.318 59.479 125.989 59.3483 126.665 59.3568C128.404 59.3568 129.525 60.3715 129.525 62.3399V69.4425H127.207V62.9081C127.207 61.8098 126.742 61.305 125.733 61.305C124.723 61.305 123.882 61.8275 123.043 62.5936V69.4425H120.725V59.5243Z" fill="black" fill-opacity="0.3"/>
<path d="M130.87 64.4836C130.87 60.7193 133.539 59.3394 135.595 59.3394C137.817 59.3394 139.947 60.6635 139.947 64.6891V65.2294H133.165C133.259 67.0177 134.362 67.8015 135.819 67.8015C136.339 67.8214 136.857 67.7285 137.337 67.5292C137.818 67.3299 138.249 67.0291 138.602 66.6474L139.817 67.8396C139.296 68.4235 138.653 68.8863 137.933 69.1953C137.213 69.5043 136.434 69.6519 135.651 69.6279C133.165 69.6279 130.87 68.1186 130.87 64.4836ZM137.837 63.5146C137.705 62.0053 136.957 61.2038 135.575 61.2038C134.456 61.2038 133.427 61.8379 133.203 63.5146H137.837Z" fill="black" fill-opacity="0.3"/>
<path d="M141.403 59.5243H143.691V60.8789C144.114 60.3936 144.636 60.0044 145.222 59.7375C145.808 59.4706 146.445 59.3322 147.09 59.3315C148.752 59.3315 149.408 59.9835 149.799 60.9524C150.232 60.4545 150.766 60.0534 151.365 59.7754C151.965 59.4973 152.616 59.3487 153.277 59.3392C155.292 59.3392 156.172 60.5517 156.172 62.3222V69.4248H153.884V62.9082C153.884 61.8098 153.566 61.3076 152.483 61.3076C151.548 61.3076 150.801 61.8149 149.942 62.5936V69.4425H147.654V62.9082C147.654 61.8098 147.339 61.3076 146.253 61.3076C145.338 61.3076 144.573 61.8149 143.711 62.5936V69.4425H141.424V59.5497L141.403 59.5243Z" fill="black" fill-opacity="0.3"/>
<path d="M157.468 67.0377C157.468 64.8943 159.298 63.4585 163.93 62.936V62.6392C163.93 61.6499 163.421 61.2212 162.305 61.2212C160.923 61.2212 159.802 61.8934 158.963 62.5631L157.852 61.1325C159.171 59.9713 160.874 59.3388 162.633 59.3568C165.284 59.3568 166.192 60.6251 166.192 62.936V67.0174C166.192 68.2096 166.266 68.9376 166.472 69.4399H164.156C164.004 69.0344 163.927 68.6046 163.93 68.1716C162.913 69.1862 161.746 69.587 160.269 69.587C158.663 69.5718 157.468 68.6764 157.468 67.0377ZM163.93 66.6648V64.4833C161.184 64.8562 159.728 65.5284 159.728 66.609C159.728 67.3903 160.269 67.8012 161.111 67.8012C161.632 67.8069 162.15 67.7094 162.634 67.5143C163.118 67.3193 163.558 67.0306 163.93 66.6648Z" fill="black" fill-opacity="0.3"/>
<path d="M167.349 68.0628L168.599 66.6651C169.47 67.4096 170.574 67.8253 171.721 67.8396C172.954 67.8396 173.701 67.5225 173.701 66.7032C173.701 65.8838 172.684 65.6581 171.494 65.3791C169.799 64.9884 167.766 64.5394 167.766 62.2463C167.766 60.5138 169.26 59.3394 171.444 59.3394C173.332 59.3394 174.494 59.8797 175.511 60.737L174.41 62.2286C173.681 61.6325 172.504 61.148 171.614 61.148C170.343 61.148 169.931 61.5944 169.931 62.1626C169.931 62.9642 170.923 63.2052 172.099 63.4664C173.797 63.8393 175.872 64.268 175.872 66.5789C175.872 68.6665 173.986 69.6355 171.726 69.6355C169.888 69.6279 168.246 68.976 167.349 68.0628Z" fill="black" fill-opacity="0.3"/>
</svg>
