<svg width="240" height="240" viewBox="0 0 240 240" fill="none" xmlns="http://www.w3.org/2000/svg">
<path d="M48.9839 128.688C48.9839 131.016 48.9359 133.224 49.0079 135.432C49.0319 136.392 48.6959 136.608 47.8319 136.56C46.6319 136.512 45.4319 136.464 44.2559 136.56C43.2239 136.632 42.9359 136.296 42.9599 135.264C43.0079 127.824 42.9839 120.408 42.9839 112.968V111.72C42.9839 108.456 42.9839 108.456 46.3199 107.952C48.5999 107.616 50.8799 107.28 53.1599 107.544C59.1599 108.264 62.5199 112.08 62.6159 118.368C62.6399 119.568 62.4959 120.744 62.2559 121.92C61.0319 128.28 55.4399 130.68 50.0159 128.976C49.7279 128.88 49.4159 128.808 48.9839 128.688ZM48.9599 118.224C48.9599 119.832 48.9359 121.44 48.9599 123.048C48.9599 123.408 48.8399 123.768 49.4639 123.96C53.8079 125.376 56.2799 123.696 56.4239 119.16V118.344C56.2799 114.048 54.0959 112.176 49.8479 112.68C49.1519 112.752 48.9119 112.992 48.9359 113.688C49.0079 115.2 48.9599 116.712 48.9599 118.224ZM30.2639 100.872C32.9519 100.536 35.3279 101.208 37.6799 102.192C38.2079 102.408 38.6639 102.48 38.3039 103.368C37.8719 104.472 37.3679 105.552 37.0799 106.704C36.8879 107.448 36.1679 107.232 35.5919 106.968C33.5279 106.032 31.3679 105.912 29.1599 106.104C27.8399 106.224 26.5919 106.632 26.5439 108.264C26.4959 109.512 27.0959 110.472 28.2479 110.976C30.2639 111.84 32.3039 112.656 34.3439 113.472C39.0959 115.368 40.2959 118.728 39.8639 122.472C39.3839 126.504 36.6239 128.544 32.8319 129.336C28.6799 130.176 24.6959 129.72 20.7839 128.088C19.9439 127.728 19.6319 127.32 20.0879 126.456C20.1839 126.288 20.2079 126.12 20.2799 125.952C20.7359 124.872 20.7359 123.192 21.6479 122.808C22.4159 122.472 23.7119 123.48 24.8159 123.816C27.1199 124.488 29.4719 124.56 31.7759 123.888C33.6719 123.336 34.1039 120.96 32.6639 119.592C31.5839 118.56 30.1679 118.152 28.8239 117.6C26.9759 116.88 25.0799 116.28 23.3999 115.128C20.5919 113.208 19.8239 110.448 20.3519 107.328C20.8319 104.496 22.6079 102.6 25.3199 101.544C26.9759 100.92 28.6079 100.56 30.2639 100.872ZM70.7519 120.504C71.7119 123.576 73.9199 124.464 76.6559 124.488C78.3599 124.512 80.0399 124.296 81.6719 123.744C82.3919 123.504 82.6559 123.696 82.7279 124.392C82.7759 124.896 82.8719 125.4 82.9679 125.88C83.4479 128.568 83.4719 128.592 80.7839 129.144C78.9839 129.504 77.1599 129.744 75.3119 129.672C68.4719 129.408 64.4159 124.944 64.7999 118.104C65.1119 112.392 68.1359 108.552 73.1039 107.592C78.8879 106.464 83.6879 109.872 84.4319 115.728C84.5759 116.952 84.4799 118.2 84.5519 119.424C84.6239 120.384 84.1679 120.528 83.3519 120.528C79.6799 120.48 76.0079 120.504 72.3599 120.504H70.7519ZM70.7279 116.4C73.2239 116.4 75.5999 116.376 77.9759 116.4C78.7199 116.4 78.7919 116.088 78.6959 115.464C78.4319 113.928 77.2559 112.656 75.7439 112.392C73.8719 112.08 72.2639 112.848 71.5199 114.456C71.2319 115.032 71.0399 115.632 70.7279 116.4ZM192.648 120.504H186.744C186.072 120.504 185.568 120.384 186.12 121.44C187.2 123.576 188.952 124.32 191.112 124.488C192.96 124.608 194.784 124.416 196.536 123.816C197.496 123.48 197.736 123.792 197.808 124.632C197.856 125.136 197.952 125.64 198.048 126.12C198.48 128.52 198.48 128.568 196.152 129.072C193.272 129.696 190.344 130.008 187.44 129.264C183.6 128.28 181.128 125.88 180.216 121.968C179.616 119.352 179.664 116.784 180.552 114.24C182.544 108.552 188.64 105.864 194.184 108.192C197.424 109.56 198.936 112.2 199.464 115.536C199.704 117.12 200.184 119.016 199.344 120.24C198.72 121.128 196.776 120.456 195.408 120.504C194.472 120.528 193.56 120.504 192.648 120.504ZM189.696 116.4C190.8 116.4 191.904 116.376 192.984 116.4C193.68 116.424 193.848 116.16 193.728 115.512C193.44 113.736 192.048 112.464 190.248 112.368C188.112 112.272 186.192 113.808 185.808 115.896C185.712 116.376 186.024 116.4 186.384 116.4H189.696ZM154.656 121.368V127.56C154.656 128.088 154.68 128.52 153.96 128.64C149.976 129.408 145.968 129.936 141.936 129.168C138.216 128.472 136.416 126.144 136.464 122.4C136.512 119.736 137.832 117.792 140.352 116.808C142.752 115.848 145.296 115.728 147.792 116.136C148.896 116.304 148.968 115.896 148.8 115.08C148.56 113.808 147.84 112.92 146.52 112.632C144.456 112.176 142.392 112.392 140.4 112.944C139.224 113.28 138.936 112.896 138.936 111.864C138.936 111.648 138.888 111.408 138.84 111.192C138.336 108.24 138.312 108.216 141.264 107.76C143.16 107.472 145.08 107.304 147.024 107.472C151.944 107.856 154.416 110.376 154.584 115.32C154.704 117.336 154.632 119.352 154.656 121.368C154.656 121.368 154.632 121.368 154.656 121.368ZM148.872 122.544V120.888C148.872 120.48 148.8 120.168 148.32 120.12C146.904 120 145.488 119.856 144.096 120.288C142.944 120.648 142.368 121.44 142.44 122.664C142.512 123.864 143.232 124.488 144.336 124.704C145.056 124.848 145.8 124.848 146.52 124.848C148.896 124.848 148.896 124.824 148.872 122.544ZM158.592 118.8C158.592 115.776 158.616 112.752 158.592 109.728C158.592 109.056 158.664 108.648 159.456 108.48C162.84 107.76 166.224 107.208 169.68 107.64C173.928 108.168 176.28 110.544 176.664 114.816C177.072 119.304 176.736 123.792 176.832 128.304C176.856 129.024 176.496 129.144 175.896 129.12C174.624 129.096 173.328 129.048 172.056 129.12C171.12 129.168 170.784 128.904 170.808 127.92C170.88 124.848 170.832 121.776 170.832 118.704C170.832 118.2 170.832 117.696 170.808 117.192C170.592 113.256 169.584 112.392 165.672 112.68C164.76 112.752 164.568 113.088 164.568 113.928C164.616 118.56 164.568 123.192 164.616 127.824C164.616 128.808 164.448 129.24 163.344 129.144C162.12 129.048 160.872 129.072 159.624 129.144C158.76 129.192 158.544 128.88 158.544 128.04C158.616 124.944 158.592 121.872 158.592 118.8Z" fill="black" fill-opacity="0.3"/>
<path d="M171.24 88.752C174.072 87.432 177.12 87.072 180.168 86.832C180.888 86.784 181.224 86.736 180.936 85.8C180.696 85.008 180.528 84.096 180.744 83.232C181.464 83.16 181.8 82.608 182.208 82.104C183.6 80.352 184.704 78.408 186.312 76.824C186.96 79.248 188.184 81.528 188.28 84.072C188.448 89.16 186.336 93.288 182.76 96.744V95.832C183.552 93.96 183.36 92.112 182.496 90.336C182.472 90.048 182.52 89.712 182.232 89.496C182.208 89.04 182.112 88.632 181.704 88.368C181.656 87.936 181.704 87.456 181.104 87.12C181.224 87.696 181.32 88.104 181.656 88.416C181.68 88.872 181.728 89.304 182.208 89.52C182.208 89.832 182.136 90.168 182.496 90.336C182.808 92.16 182.832 94.008 182.784 95.856C182.376 96.192 182.28 96.672 182.208 97.176C179.208 99.768 175.704 101.016 171.768 101.088C169.392 101.136 166.992 101.112 164.64 101.592C164.52 100.992 164.856 100.536 165.12 100.08C165.936 98.712 166.752 97.368 167.592 96.024C169.032 93.72 170.352 91.344 171.24 88.752Z" fill="black" fill-opacity="0.3"/>
<path d="M204.384 136.752C208.104 136.752 211.8 136.776 215.52 136.728C216.36 136.728 216.624 136.848 216.456 137.808C215.784 141.408 215.208 145.032 214.656 148.656C214.536 149.52 214.176 149.76 213.312 149.736C205.848 149.712 198.36 149.688 190.896 149.736C189.888 149.736 189.672 149.496 189.864 148.512C190.512 144.96 191.088 141.384 191.64 137.808C191.784 136.944 192.144 136.728 192.984 136.728C196.776 136.776 200.592 136.752 204.384 136.752ZM208.968 147.936H211.44C212.088 147.96 212.136 147.504 212.208 147.024C212.328 146.328 211.8 146.448 211.416 146.424C210.816 146.4 210.216 146.424 209.616 146.424C207.792 146.424 207.768 146.328 208.272 144.576C208.56 143.544 209.28 144.048 209.832 143.976C210.6 143.88 211.68 144.264 211.584 142.944C211.488 141.792 210.48 142.68 209.952 142.416C209.568 142.224 208.68 142.848 208.848 141.792C208.968 141.12 208.704 140.112 210 140.184C210.864 140.256 211.752 140.184 212.616 140.208C213.288 140.232 213.288 139.752 213.36 139.296C213.48 138.576 212.952 138.72 212.568 138.72C211.32 138.696 210.096 138.768 208.848 138.696C207.984 138.648 207.624 138.936 207.504 139.8C207.24 141.528 206.88 143.232 206.52 144.936C205.944 147.96 205.92 147.96 208.968 147.936ZM202.704 138.72C201.6 138.72 200.496 138.744 199.392 138.72C198.624 138.696 198.672 139.296 198.624 139.752C198.552 140.4 199.08 140.16 199.392 140.184C199.8 140.232 200.232 140.232 200.616 140.184C201.456 140.088 201.504 140.448 201.336 141.144C200.928 143.016 200.568 144.912 200.232 146.808C200.16 147.168 199.704 147.744 200.472 147.888C201.096 148.008 201.72 148.08 201.84 147.096C202.056 145.56 202.416 144.048 202.728 142.512C203.16 140.304 203.16 140.304 205.32 140.184C205.512 140.184 205.704 140.208 205.872 140.16C206.352 139.992 206.328 139.512 206.352 139.128C206.4 138.624 205.968 138.72 205.68 138.72H202.704ZM194.928 147.936C195.864 147.936 196.656 147.888 197.424 147.96C198.24 148.032 198.312 147.48 198.36 146.928C198.432 146.208 197.808 146.472 197.472 146.448C196.656 146.4 195.816 146.4 195 146.448C194.28 146.472 194.016 146.352 194.208 145.512C194.64 143.64 195 141.744 195.312 139.848C195.384 139.464 195.84 138.792 194.904 138.72C194.232 138.648 193.8 138.744 193.68 139.584C193.416 141.384 192.984 143.184 192.648 144.984C192.48 145.92 191.904 147.168 192.312 147.72C192.792 148.368 194.136 147.84 194.928 147.936Z" fill="black" fill-opacity="0.3"/>
<path d="M202.584 113.28C202.584 109.728 202.608 106.776 202.56 103.848C202.536 103.008 202.776 102.6 203.64 102.504C204.96 102.36 206.28 102.168 207.576 101.88C208.488 101.688 208.656 102 208.632 102.84C208.56 104.256 208.632 105.696 208.608 107.112C208.584 107.76 208.8 108 209.472 107.976C211.176 107.928 212.88 108 214.56 107.952C215.472 107.904 215.928 108.12 215.808 109.128C215.688 110.352 216.312 111.936 215.568 112.704C214.824 113.496 213.216 112.872 212.016 112.968C210.936 113.04 209.52 112.488 208.848 113.184C208.176 113.88 208.68 115.272 208.656 116.376C208.632 117.888 208.608 119.4 208.656 120.912C208.752 123.648 209.832 124.632 212.568 124.464C213.216 124.416 213.888 124.416 214.464 124.176C215.784 123.6 216 124.344 216.096 125.352C216.12 125.544 216.144 125.712 216.168 125.904C216.696 128.784 216.696 128.808 213.792 129.336C212.064 129.648 210.312 129.672 208.584 129.36C205.32 128.808 203.352 126.744 202.872 123.36C202.32 119.832 202.728 116.232 202.584 113.28ZM106.2 113.376C106.2 109.728 106.224 106.704 106.176 103.68C106.176 103.056 106.272 102.648 106.992 102.552C108.456 102.36 109.896 102.144 111.336 101.88C112.032 101.76 112.224 102 112.2 102.672C112.176 104.088 112.248 105.528 112.176 106.944C112.128 107.808 112.44 108.024 113.28 108C114.984 107.928 116.664 108.024 118.368 107.976C119.136 107.952 119.448 108.144 119.4 108.96C119.328 110.232 119.808 111.864 119.16 112.68C118.488 113.568 116.76 112.944 115.512 112.968C112.2 113.016 112.2 112.992 112.2 116.328C112.2 117.984 112.152 119.64 112.248 121.272C112.392 123.672 113.424 124.56 115.776 124.464C116.688 124.416 117.6 124.296 118.488 124.032C119.256 123.816 119.472 124.032 119.52 124.752C119.568 125.304 119.712 125.832 119.808 126.384C120.24 128.64 120.24 128.64 117.936 129.216C115.992 129.696 114.024 129.72 112.056 129.384C108.888 128.832 106.968 126.864 106.44 123.624C105.864 120 106.344 116.376 106.2 113.376ZM98.016 107.4C99.408 107.376 101.016 107.688 102.6 108.216C103.224 108.432 103.512 108.648 103.248 109.392C102.912 110.376 102.648 111.408 102.456 112.44C102.312 113.16 102.048 113.352 101.352 113.088C100.224 112.656 99.048 112.56 97.848 112.584C94.632 112.632 93.12 114.96 92.784 117.552C92.592 118.896 92.712 120.264 93.312 121.608C94.296 123.744 96 124.488 98.184 124.512C99.576 124.536 100.944 124.368 102.24 123.936C102.84 123.744 103.08 123.84 103.152 124.44C103.248 125.208 103.392 125.976 103.512 126.744C103.848 128.736 103.848 128.736 101.832 129.216C99.48 129.768 97.104 129.864 94.728 129.408C89.976 128.472 87.336 125.184 86.808 119.688C86.112 112.704 90.864 107.376 98.016 107.4ZM122.76 118.992V110.064C122.76 109.464 122.832 109.056 123.528 108.84C127.392 107.64 131.304 107.112 135.312 107.976C136.296 108.192 136.608 108.528 136.296 109.536C135.96 110.664 136.152 112.176 135.456 112.944C134.736 113.736 133.368 112.752 132.24 112.68C128.88 112.512 128.784 112.584 128.784 115.824C128.784 119.856 128.76 123.888 128.808 127.92C128.832 128.904 128.52 129.192 127.584 129.144C126.432 129.072 125.28 129.072 124.152 129.144C123.12 129.216 122.712 128.976 122.76 127.824C122.832 124.848 122.76 121.92 122.76 118.992Z" fill="black" fill-opacity="0.3"/>
<path d="M183.096 149.808C179.28 149.832 176.856 147.024 177.384 143.256C178.008 138.72 181.656 135.84 185.832 136.608C186.576 136.752 187.248 137.016 187.848 137.448C189.744 138.816 189.672 139.608 187.632 140.592C187.152 140.832 186.888 140.808 186.456 140.424C185.016 139.104 182.976 139.32 181.752 140.832C180.408 142.464 180.408 145.248 181.728 146.28C182.544 146.928 184.368 147 185.256 146.472C185.784 146.16 185.88 145.68 185.808 145.176C185.736 144.624 185.232 144.912 184.92 144.84C184.56 144.744 183.768 145.104 183.96 144.336C184.128 143.64 183.72 142.56 184.896 142.32H185.04C189.432 141.84 189.432 141.84 188.616 146.04C188.04 148.728 186.528 149.784 183.096 149.808Z" fill="black" fill-opacity="0.3"/>
<path d="M171.24 88.752C170.376 91.344 169.056 93.696 167.616 96C166.776 97.344 165.936 98.6879 165.144 100.056C164.88 100.512 164.544 100.992 164.664 101.568C162.096 102.36 159.672 103.344 157.944 105.648C157.488 100.608 163.416 91.656 171.24 88.752Z" fill="black" fill-opacity="0.3"/>
<path d="M169.032 147.36C168.792 147.36 168.576 147.384 168.336 147.36C167.76 147.312 166.824 147.624 166.656 147.192C166.416 146.52 166.608 145.584 167.088 144.984C169.008 142.608 170.976 140.232 173.016 137.952C173.856 137.016 175.08 137.568 176.136 137.616C176.544 137.64 176.352 138.144 176.28 138.432C175.848 140.16 175.824 141.96 175.104 143.616C174.936 144 174.912 144.648 175.392 144.792C175.92 144.96 176.28 145.128 175.992 145.68C175.704 146.256 176.232 147.288 175.032 147.36C174.168 147.408 174.504 148.176 174.312 148.608C174.144 148.944 174.264 149.496 173.664 149.472C172.944 149.448 172.2 149.64 171.504 149.352C171.432 149.328 171.384 149.088 171.408 148.992C172.128 146.76 170.472 147.432 169.416 147.36H169.032ZM169.896 144.72C172.416 145.104 172.512 144.984 172.704 141.6C171.768 142.632 170.904 143.592 169.896 144.72Z" fill="black" fill-opacity="0.3"/>
<path d="M186.288 76.8478C184.704 78.4318 183.576 80.3758 182.184 82.1278C181.776 82.6318 181.464 83.1838 180.72 83.2558C180.456 82.6318 180.672 82.1518 181.08 81.6718C182.688 79.8478 184.2 77.9278 185.328 75.7678C185.472 75.4558 185.832 75.1438 186.048 75.3358C186.528 75.7198 186.312 76.3198 186.288 76.8478Z" fill="black" fill-opacity="0.3"/>
<path d="M185.352 75.7681C184.2 77.9281 182.712 79.8481 181.104 81.6721C181.464 78.9601 182.904 76.9921 185.352 75.7681Z" fill="black" fill-opacity="0.3"/>
<path d="M182.736 95.856V96.768C182.64 97.0079 182.448 97.1519 182.184 97.1759C182.256 96.6959 182.352 96.216 182.736 95.856Z" fill="black" fill-opacity="0.3"/>
<path d="M48.9601 118.224C48.9601 116.712 48.9841 115.2 48.9361 113.688C48.9121 112.968 49.1761 112.752 49.8481 112.68C54.0961 112.176 56.2801 114.024 56.4241 118.344V119.16C56.2801 123.696 53.8081 125.4 49.4641 123.96C48.8401 123.768 48.9601 123.408 48.9601 123.048V118.224ZM70.7281 116.4C71.0401 115.632 71.2321 115.032 71.5201 114.48C72.2881 112.872 73.8961 112.104 75.7441 112.416C77.2321 112.68 78.4321 113.928 78.6961 115.488C78.7921 116.112 78.7201 116.424 77.9761 116.424C75.6001 116.376 73.2241 116.4 70.7281 116.4ZM189.696 116.4H186.408C186.072 116.4 185.76 116.376 185.832 115.896C186.216 113.808 188.136 112.272 190.272 112.368C192.048 112.44 193.44 113.736 193.752 115.512C193.872 116.184 193.704 116.424 193.008 116.4C191.88 116.376 190.776 116.4 189.696 116.4ZM148.872 122.544C148.872 124.824 148.872 124.848 146.52 124.848C145.8 124.848 145.056 124.824 144.336 124.704C143.256 124.488 142.512 123.888 142.44 122.664C142.368 121.44 142.92 120.648 144.096 120.288C145.488 119.856 146.904 120 148.32 120.12C148.8 120.168 148.896 120.48 148.872 120.888V122.544Z" fill="white" fill-opacity="0.2"/>
<path d="M182.76 95.88C182.832 94.032 182.784 92.184 182.472 90.36C183.36 92.16 183.552 93.984 182.76 95.88C182.736 95.856 182.76 95.88 182.76 95.88ZM181.632 88.44C181.272 88.128 181.176 87.72 181.08 87.144C181.704 87.504 181.632 87.96 181.68 88.392L181.632 88.44ZM181.68 88.416C182.088 88.68 182.184 89.088 182.208 89.544L182.184 89.568C181.704 89.352 181.656 88.92 181.632 88.464C181.632 88.44 181.68 88.416 181.68 88.416Z" fill="#F8B39A"/>
<path d="M182.208 89.52C182.496 89.736 182.448 90.048 182.472 90.36C182.112 90.192 182.184 89.856 182.208 89.52C182.184 89.544 182.208 89.52 182.208 89.52Z" fill="#F8B39A"/>
<path d="M208.968 147.936C205.944 147.936 205.944 147.936 206.544 144.936C206.88 143.232 207.264 141.528 207.528 139.8C207.648 138.936 208.032 138.648 208.872 138.696C210.096 138.768 211.344 138.696 212.592 138.72C212.976 138.72 213.504 138.576 213.384 139.296C213.312 139.752 213.312 140.232 212.64 140.208C211.776 140.184 210.888 140.256 210.024 140.184C208.728 140.088 208.992 141.12 208.872 141.792C208.704 142.848 209.592 142.224 209.976 142.416C210.504 142.68 211.512 141.792 211.608 142.944C211.704 144.264 210.624 143.88 209.856 143.976C209.328 144.048 208.584 143.52 208.296 144.576C207.816 146.328 207.84 146.424 209.64 146.424H211.44C211.824 146.424 212.328 146.304 212.232 147.024C212.16 147.48 212.112 147.96 211.464 147.936H208.968ZM202.704 138.72H205.728C206.016 138.72 206.448 138.624 206.4 139.128C206.376 139.512 206.4 139.992 205.92 140.16C205.752 140.208 205.56 140.184 205.368 140.184C203.208 140.304 203.208 140.304 202.776 142.512C202.464 144.048 202.104 145.56 201.888 147.096C201.744 148.08 201.12 148.008 200.52 147.888C199.752 147.744 200.208 147.168 200.28 146.808C200.616 144.912 200.976 143.016 201.384 141.144C201.528 140.448 201.48 140.088 200.664 140.184C200.256 140.232 199.848 140.232 199.44 140.184C199.128 140.16 198.6 140.376 198.672 139.752C198.72 139.296 198.672 138.696 199.44 138.72C200.496 138.744 201.6 138.72 202.704 138.72Z" fill="#FEFEFE"/>
</svg>
