<svg width="235" height="166" viewBox="0 0 235 166" fill="none" xmlns="http://www.w3.org/2000/svg">
<path d="M43.6761 103.778C42.6489 103.618 41.6542 103.49 40.6922 103.393C39.7301 103.296 38.7847 103.249 37.8562 103.251C37.0707 103.256 36.2861 103.303 35.5058 103.393C34.6424 103.492 33.6999 103.62 32.6782 103.778L32.427 103.011C33.5435 102.498 34.2702 101.97 34.607 101.427C35.009 100.724 35.2751 99.477 35.4054 97.6848C35.4817 96.4077 35.4817 93.5614 35.4054 89.1461C35.3551 86.2051 35.2956 83.7186 35.2267 81.6866C35.1579 79.6547 35.0825 78.0475 35.0006 76.8651C34.9485 75.7497 34.7578 74.9019 34.4284 74.3219C34.1306 73.7791 33.4793 73.252 32.4745 72.7408L32.6531 71.8763C33.939 72.2927 35.5756 72.5009 37.5631 72.5009C39.2925 72.4872 41.0136 72.2615 42.688 71.8289L42.9448 72.7408C41.8282 73.2836 41.1341 73.8748 40.8624 74.5143C40.6484 74.994 40.5554 75.8891 40.5833 77.1998C40.5833 77.618 40.6 78.1451 40.6112 78.7837C40.6224 79.4223 40.6112 80.1111 40.6112 80.9421C40.6112 81.7731 40.5889 82.5093 40.6112 83.1506C40.6335 83.792 40.6307 84.2661 40.6391 84.6844C40.6503 85.2923 40.6996 86.7312 40.7871 89.0011C40.8745 91.2711 40.9852 94.4212 41.1192 98.4517C41.1713 99.701 41.3881 100.644 41.7696 101.282C42.1511 101.92 42.8731 102.496 43.9357 103.011L43.6761 103.778ZM61.0438 100.228C58.2002 102.919 54.42 104.398 50.5037 104.352C48.8973 104.367 47.2958 104.174 45.7389 103.778V103.011C47.0062 102.403 47.5523 98.8533 47.3774 92.3614L47.2016 87.802C47.1699 86.1084 47.0769 83.3105 46.9224 79.4083C46.8694 78.3514 46.8247 77.5121 46.7801 76.8986C46.7354 76.2851 46.6991 75.8668 46.6628 75.6744C46.3502 74.2355 45.5537 73.5002 44.2734 73.4686L44.2595 72.6515C45.5258 72.4883 46.7794 72.2377 48.011 71.9014C49.2523 71.5649 50.4935 71.1726 51.7347 70.7246L52.1227 70.917C52.1227 71.0118 52.1227 71.1652 52.1059 71.3716C52.0892 71.5779 52.0892 71.7954 52.1059 72.0213C52.1227 72.2472 52.1059 72.4033 52.092 72.5958C52.078 72.7882 52.0724 72.8997 52.0724 72.9304V75.4401L52.2511 85.758C53.9668 83.1664 56.0734 81.8707 58.5707 81.8707C60.7479 81.8707 62.459 82.7184 63.7039 84.4139C64.8205 85.8863 65.3983 87.7732 65.4374 90.0747C65.5025 94.0625 64.038 97.4469 61.0438 100.228ZM56.2678 85.1696C53.4765 84.9837 52.1283 87.5585 52.2232 92.894C52.2399 93.7306 52.2511 94.4612 52.2622 95.0998C52.2734 95.7384 52.293 96.3407 52.3181 96.8985C52.3432 97.4562 52.3767 98.0139 52.4186 98.5716C52.4604 99.1293 52.5023 99.7177 52.547 100.323C52.7945 101.795 53.4635 102.531 54.5539 102.531C56.346 102.531 57.7947 101.172 58.9001 98.4517C59.746 96.4499 60.1661 94.2942 60.1338 92.1216C60.0538 87.6431 58.7651 85.3239 56.2678 85.164V85.1696ZM82.886 99.9408C80.8502 102.596 78.2505 103.923 75.087 103.923C72.4632 103.923 70.4162 103.107 68.9461 101.475C67.5765 99.9408 66.8675 97.8141 66.8191 95.0942C66.7073 91.8779 67.6459 88.7125 69.4932 86.0759C71.555 83.198 74.2347 81.7591 77.5322 81.7591C80.1245 81.7591 82.1268 82.7342 83.5392 84.6844C84.8176 86.4114 85.4801 88.6182 85.5266 91.3045C85.5806 94.6323 84.7004 97.511 82.886 99.9408ZM79.8909 87.802C78.9995 84.6416 77.5955 83.0614 75.6788 83.0614C72.7311 83.0614 71.3076 85.9076 71.408 91.6001C71.4475 93.8635 71.8104 96.1096 72.4855 98.2705C73.4345 101.245 74.8535 102.732 76.7423 102.732C79.5578 102.732 80.9191 100.063 80.826 94.7233C80.7981 92.3868 80.484 90.0624 79.8909 87.802ZM120.363 103.778C119.618 103.65 118.864 103.557 118.099 103.499C117.331 103.435 116.527 103.401 115.695 103.401C115.215 103.401 114.564 103.426 113.741 103.474C112.919 103.522 111.952 103.615 110.841 103.753L110.635 102.841C111.813 102.521 112.572 102.009 112.912 101.304C113.158 100.73 113.27 99.8014 113.247 98.5159L113.214 96.6447V96.1651C113.178 95.8444 113.155 95.5097 113.15 95.1556C113.144 94.8014 113.136 94.358 113.127 93.9091L113.094 91.9905C113.055 89.8154 112.933 88.3439 112.728 87.5761C112.248 85.7561 111.288 84.8452 109.848 84.8433C107.801 84.8433 106.607 86.1224 106.266 88.6804C106.192 89.1482 106.152 89.6207 106.146 90.0943C106.124 90.7189 106.106 91.5267 106.093 92.5176C106.068 92.9665 106.06 93.4294 106.068 93.9119C106.076 94.3943 106.085 94.8544 106.093 95.3062C106.136 97.7676 106.209 99.2065 106.311 99.6229C106.661 101.19 107.527 102.213 108.91 102.69L108.686 103.65C107.988 103.512 107.281 103.424 106.571 103.388C105.769 103.337 104.857 103.315 103.832 103.315C102.254 103.309 100.679 103.47 99.1344 103.795L98.9753 102.93C100.343 102.547 101.121 101.284 101.309 99.1405C101.337 98.8867 101.351 98.3485 101.354 97.5343C101.356 96.72 101.354 95.5822 101.317 94.1517C101.297 92.9693 101.255 91.9301 101.192 91.034C101.128 90.138 101.059 89.3702 100.985 88.7306C100.583 85.9811 99.7262 84.6063 98.4142 84.6063C97.2307 84.6063 96.2798 85.164 95.5615 86.2794C94.6906 87.6533 94.2905 90.3555 94.3612 94.3859C94.4021 96.8473 94.4775 98.4275 94.5873 99.1266C94.9111 101.272 95.6852 102.519 96.9097 102.869L96.7813 103.781C95.2637 103.447 93.7156 103.27 92.1616 103.254C90.5362 103.234 88.9137 103.396 87.3242 103.736L87.0674 102.872C88.465 102.232 89.2903 100.889 89.5434 98.8421C89.5713 98.6841 89.5573 96.9886 89.5015 93.7557C89.4661 91.5824 89.4364 89.8721 89.4122 88.6247C89.3898 87.3447 89.3591 86.5304 89.32 86.1763C89.2642 84.8015 89.0744 83.9063 88.745 83.4908C88.6129 83.2678 88.0816 83.0595 87.1512 82.8662L86.8721 82.7714L86.8581 81.9571C90.1463 81.5407 92.5999 80.917 94.2189 80.086L94.7101 80.7078C94.6543 81.1568 94.6152 81.6615 94.5929 82.2192C94.5706 82.777 94.565 83.396 94.5929 84.0653V84.8824C94.5909 85.0596 94.6097 85.2365 94.6487 85.4094C96.4575 82.6208 98.6264 81.2265 101.155 81.2265C103.362 81.2265 104.988 82.6338 106.032 85.4485C107.919 82.7677 110.196 81.4273 112.865 81.4273C116.257 81.4273 117.994 83.6981 118.074 88.2398C118.074 88.4964 118.074 88.7976 118.088 89.1517C118.102 89.5059 118.088 89.8238 118.06 90.2058L117.976 93.6609C117.951 94.0457 117.942 94.4612 117.948 94.9074C117.954 95.3536 117.965 95.8527 117.976 96.3965C118.021 99.0178 118.176 100.584 118.442 101.095C118.838 101.802 119.553 102.378 120.586 102.824L120.363 103.778Z" fill="black" fill-opacity="0.3"/>
<path d="M163.355 103.736C161.636 103.359 159.881 103.166 158.121 103.159C157.222 103.16 156.324 103.208 155.43 103.304C154.461 103.406 153.499 103.566 152.55 103.783L152.357 102.966C153.959 102.135 154.759 101.02 154.757 99.6199C154.757 98.4673 154.262 96.2439 153.27 92.9496C151.798 92.4651 150.258 92.2221 148.709 92.2301C146.626 92.2301 145.089 92.5824 144.097 93.287C143.278 95.182 142.837 97.2186 142.799 99.2825C142.799 101.142 143.73 102.326 145.591 102.835L145.351 103.794C144.118 103.543 142.863 103.414 141.605 103.41C140.49 103.398 139.377 103.507 138.286 103.736L138.141 103.064C139.199 102.006 140.145 100.39 140.977 98.2172C141.583 96.6817 142.128 95.1944 142.61 93.7555C143.092 92.3166 143.523 90.9223 143.905 89.5726L147.218 78.2509C147.346 77.9302 147.587 77.1159 147.938 75.8025C147.859 75.5116 147.747 75.2309 147.603 74.9659C147.441 74.6619 147.235 74.3022 146.978 73.8867L147.171 73.3596C149.443 72.6867 151.172 71.7571 152.357 70.571L152.837 70.8109C152.997 71.6419 153.183 72.5537 153.395 73.5465C153.607 74.5392 153.872 75.6101 154.188 76.759C154.346 77.2721 154.586 78.1356 154.908 79.3496C155.23 80.5635 155.663 82.1307 156.206 84.0511C158.158 91.3127 159.74 96.3991 160.951 99.3104C161.72 101.197 162.584 102.412 163.545 102.955L163.355 103.736ZM150.484 83.2954C150.132 82.1131 149.812 81.0813 149.524 80.2001C149.245 79.3217 148.965 78.5632 148.709 77.9218L144.522 91.586C145.939 91.083 147.436 90.8393 148.94 90.8665C149.387 90.8665 149.931 90.8981 150.573 90.9613C151.212 91.0254 151.933 91.123 152.734 91.2402L150.484 83.2954ZM173.727 103.772L173.295 103.867C173.136 103.836 172.857 103.794 172.457 103.747C172.058 103.7 171.522 103.627 170.85 103.532C169.633 103.346 168.976 103.253 168.879 103.253C167.39 103.224 165.903 103.401 164.463 103.781L164.184 102.771C164.753 102.552 165.256 102.19 165.643 101.719C166.031 101.249 166.29 100.686 166.395 100.086C166.489 99.6692 166.538 98.4376 166.54 96.3907V95.3701C166.54 94.9546 166.54 94.4749 166.587 93.9312C166.635 93.3874 166.635 92.9077 166.635 92.4922V91.4828C166.635 93.115 166.683 92.06 166.78 88.3177C166.875 84.7985 166.089 82.9273 164.424 82.7042V81.9374C165.716 81.8174 167 81.6163 168.268 81.3351C169.464 81.0708 170.636 80.7099 171.773 80.2559L172.254 80.8331C172.189 81.3434 172.134 82.2274 172.086 83.446C172.039 84.6646 171.98 86.2848 171.916 88.2703C171.884 88.815 171.868 89.4545 171.868 90.1889V99.2741C172.092 101.133 172.844 102.301 174.127 102.777L173.727 103.772ZM171.134 77.5983C170.461 78.0737 169.652 78.3183 168.829 78.2955C168.084 78.3144 167.356 78.0772 166.766 77.6234C166.493 77.4266 166.272 77.1669 166.121 76.8664C165.971 76.5658 165.895 76.2334 165.9 75.8973C165.903 75.5159 166.006 75.142 166.199 74.8133C166.393 74.4847 166.67 74.2131 167.003 74.0261C167.643 73.6007 168.398 73.3826 169.166 73.4015C169.908 73.3828 170.634 73.6103 171.232 74.0484C171.504 74.2402 171.725 74.4958 171.876 74.7929C172.026 75.09 172.101 75.4194 172.094 75.7523C172.102 76.1157 172.018 76.4751 171.85 76.7976C171.682 77.1201 171.436 77.3954 171.134 77.5983ZM191.712 86.9067C191.451 87.1831 191.134 87.4007 190.782 87.5449C190.43 87.6892 190.052 87.7568 189.672 87.7433C188.775 87.7433 188.103 87.0879 187.656 85.7773C187.399 85.108 186.983 84.7734 186.406 84.7734C184.58 84.7734 183.464 85.9242 183.056 88.2257C182.661 90.586 182.481 92.9773 182.517 95.3701C182.517 97.7385 182.565 99.1775 182.66 99.6868C182.95 101.319 183.719 102.407 184.965 102.95L184.533 103.767C183.038 103.407 181.509 103.213 179.972 103.189C178.433 103.205 176.902 103.399 175.408 103.767V102.807C176.402 102.391 177.074 101.575 177.426 100.359C177.612 99.6562 177.705 98.5407 177.705 97.0126V89.1376C177.705 88.7862 177.705 88.301 177.683 87.6512C177.66 87.0015 177.641 86.243 177.61 85.3478C177.577 84.6042 177.408 84.0762 177.105 83.7639C176.801 83.446 176.231 83.1727 175.399 82.9496V82.0852C176.644 81.9639 177.879 81.7637 179.098 81.4856C180.276 81.2163 181.432 80.8555 182.554 80.4064L183.081 81.0311C183.081 81.1594 183.081 81.349 183.056 81.6055C183.031 81.8621 183.017 82.2135 182.986 82.6624C182.956 83.1114 182.939 83.4293 182.939 83.7165V85.3478C184.506 82.8511 186.46 81.6037 188.801 81.6055C189.756 81.5719 190.691 81.8783 191.441 82.47C191.788 82.7529 192.064 83.1126 192.247 83.5207C192.43 83.9288 192.516 84.374 192.496 84.8208C192.522 85.5925 192.24 86.3428 191.712 86.9067Z" fill="black" fill-opacity="0.3"/>
<path d="M114.308 69.8238C114.085 69.8656 128.323 75.2755 129.63 90.5542V79.3301C129.518 79.2353 123.919 69.1294 114.308 69.8238Z" fill="black" fill-opacity="0.3"/>
<path d="M144.952 69.8238C145.178 69.8657 130.939 75.2756 129.63 90.5543V79.3302C129.744 79.2354 135.344 69.1295 144.952 69.8238ZM142.199 54.2439C142.73 54.3861 132.072 56.2378 129.638 63.4184V59.5144C129.747 59.3331 133.839 53.7225 142.199 54.2439Z" fill="black" fill-opacity="0.3"/>
<path d="M117.063 54.2439C116.533 54.3861 127.19 56.2378 129.624 63.4184V59.5144C129.518 59.3331 125.42 53.7225 117.063 54.2439Z" fill="black" fill-opacity="0.3"/>
<path d="M143.659 62.8857C144.251 63.0559 132.357 65.2031 129.63 73.5326V68.2901C129.945 68.1534 134.995 62.4981 143.659 62.8857Z" fill="black" fill-opacity="0.3"/>
<path d="M115.6 62.8857C115.009 63.0559 126.905 65.2031 129.63 73.5326V68.2901C129.314 68.1534 124.268 62.4981 115.6 62.8857Z" fill="black" fill-opacity="0.3"/>
</svg>
