<svg width="136" height="25" viewBox="0 0 136 25" fill="none" xmlns="http://www.w3.org/2000/svg">
<path d="M12.5859 1.65063L15.9448 8.44818L23.4589 9.53803L18.0225 14.8135L19.3037 22.2858L12.5859 18.7573L5.8851 22.2858L7.1665 14.8135L1.72986 9.53803L9.22673 8.44818L12.5859 1.65063Z" fill="#FAB400"/>
<path d="M19.3037 24.0154C19.0285 24.0154 18.7514 23.9496 18.4985 23.8163L12.5875 20.7116L6.69369 23.8163C6.1101 24.1242 5.40379 24.0706 4.86882 23.6866C4.33543 23.2992 4.06901 22.6418 4.17977 21.9933L5.30684 15.4205L0.52471 10.778C0.0521546 10.3179 -0.119442 9.63109 0.0848271 9.0051C0.287502 8.37884 0.829387 7.92242 1.48204 7.82556L8.07868 6.86733L11.0359 0.886048C11.6195 -0.295349 13.5568 -0.295349 14.1404 0.886048L17.0976 6.86733L23.7099 7.82556C24.3626 7.92056 24.9047 8.37725 25.109 9.0051C25.3133 9.63136 25.1419 10.3197 24.6691 10.778L19.887 15.4205L21.0141 21.9933C21.1248 22.6418 20.8581 23.2976 20.325 23.6866C20.0203 23.9029 19.662 24.0154 19.3037 24.0154ZM12.5859 17.0273C12.8629 17.0273 13.14 17.0931 13.391 17.2263L17.0044 19.1237L16.3153 15.1074C16.2184 14.5453 16.407 13.9727 16.8158 13.5749L19.7297 10.7451L15.6956 10.1605C15.1312 10.0793 14.6445 9.7245 14.3919 9.21447L12.5862 5.55803L10.7804 9.21447C10.5275 9.72476 10.0412 10.0793 9.47829 10.1605L5.45958 10.7435L8.37539 13.5715C8.78393 13.9692 8.97279 14.5435 8.87584 15.1058L8.1868 19.117L11.7813 17.2247C12.0318 17.0931 12.3088 17.0273 12.5859 17.0273Z" fill="#FAB400"/>
<path d="M40.2884 1.65063L43.6473 8.44818L51.1617 9.53803L45.725 14.8135L47.0062 22.2858L40.2884 18.7573L33.5879 22.2858L34.869 14.8135L29.4324 9.53803L36.9295 8.44818L40.2884 1.65063Z" fill="#FAB400"/>
<path d="M47.0062 24.0154C46.731 24.0154 46.4539 23.9496 46.2011 23.8163L40.29 20.7116L34.3962 23.8163C33.8145 24.1242 33.1063 24.0706 32.5713 23.6866C32.0379 23.2992 31.7715 22.6418 31.8823 21.9933L33.0094 15.4205L28.2272 10.778C27.7547 10.3179 27.5831 9.63109 27.7873 9.0051C27.99 8.37884 28.5319 7.92242 29.1846 7.82556L35.7812 6.86733L38.7385 0.886048C39.322 -0.295349 41.2593 -0.295349 41.8429 0.886048L44.8001 6.86733L51.4124 7.82556C52.0651 7.92056 52.6072 8.37725 52.8115 9.0051C53.0158 9.63136 52.8445 10.3197 52.3716 10.778L47.5895 15.4205L48.7166 21.9933C48.8273 22.6418 48.5606 23.2976 48.0275 23.6866C47.7231 23.9029 47.3645 24.0154 47.0062 24.0154ZM40.2884 17.0273C40.5655 17.0273 40.8425 17.0931 41.0935 17.2263L44.7069 19.1237L44.0178 15.1074C43.9209 14.5453 44.1095 13.9727 44.5183 13.5749L47.4322 10.7451L43.3981 10.1605C42.8337 10.0793 42.347 9.7245 42.0944 9.21447L40.2887 5.55962L38.4829 9.21447C38.23 9.72476 37.7437 10.0793 37.1808 10.1605L33.1621 10.7435L36.0779 13.5715C36.4864 13.9692 36.6753 14.5435 36.5784 15.1058L35.8893 19.117L39.4838 17.2247C39.7343 17.0931 40.0114 17.0273 40.2884 17.0273Z" fill="#FAB400"/>
<path d="M67.9909 1.65063L71.3498 8.44818L78.8642 9.53803L73.4275 14.8135L74.7087 22.2858L67.9909 18.7573L61.2904 22.2858L62.5715 14.8135L57.1349 9.53803L64.632 8.44818L67.9909 1.65063Z" fill="#FAB400"/>
<path d="M61.2904 24.0154C60.9321 24.0154 60.5753 23.9047 60.2741 23.6869C59.7407 23.2994 59.4743 22.6421 59.585 21.9936L60.7121 15.4208L55.93 10.7782C55.4574 10.3181 55.2858 9.63134 55.4901 9.00535C55.6928 8.37909 56.2347 7.92267 56.8873 7.82581L63.484 6.86758L66.4412 0.886293C67.0248 -0.295105 68.962 -0.295105 69.5456 0.886293L72.5029 6.86758L79.1152 7.82581C79.7679 7.92108 80.3097 8.3775 80.5143 9.00535C80.7169 9.63161 80.5472 10.32 80.0744 10.7782L75.2904 15.4208L76.4175 21.9936C76.5282 22.6421 76.2615 23.2978 75.73 23.6853C75.195 24.0745 74.4903 24.1247 73.9051 23.8166L67.9941 20.7119L62.1003 23.8166C61.8445 23.9496 61.5674 24.0154 61.2904 24.0154ZM67.9909 17.0273C68.2679 17.0273 68.545 17.0931 68.796 17.2263L72.4094 19.1237L71.7219 15.1074C71.625 14.5453 71.812 13.9727 72.2205 13.5749L75.1363 10.7451L71.1022 10.1605C70.5378 10.0793 70.0511 9.72449 69.7985 9.21446L67.9928 5.55961L66.187 9.21446C65.9341 9.72476 65.4478 10.0793 64.8849 10.1605L60.8662 10.7435L63.782 13.5715C64.1905 13.9692 64.3794 14.5435 64.2824 15.1058L63.5934 19.117L67.1879 17.2247C67.4368 17.0931 67.7138 17.0273 67.9909 17.0273Z" fill="#FAB400"/>
<path d="M95.6934 1.65063L99.0525 8.44818L106.567 9.53803L101.13 14.8135L102.411 22.2858L95.6934 18.7573L88.9929 22.2858L90.2743 14.8135L84.8376 9.53803L92.3345 8.44818L95.6934 1.65063Z" fill="#FAB400"/>
<path d="M88.993 24.0154C88.6346 24.0154 88.2779 23.9047 87.9767 23.6869C87.4417 23.2994 87.175 22.644 87.2876 21.9936L88.4131 15.4208L83.6291 10.7783C83.1581 10.3181 82.9868 9.63135 83.1892 9.00536C83.3916 8.37937 83.9354 7.92268 84.5883 7.82582L91.1849 6.86759L94.1403 0.886294C94.7221 -0.295106 96.663 -0.295106 97.2447 0.886294L100.202 6.86919L106.814 7.82741C107.467 7.92268 108.009 8.37911 108.213 9.00696C108.416 9.63321 108.246 10.3216 107.773 10.7799L102.99 15.4224L104.117 21.9952C104.227 22.6437 103.961 23.2994 103.429 23.6869C102.892 24.0762 102.188 24.1263 101.606 23.8182L95.6932 20.7135L89.8013 23.8182C89.5471 23.9496 89.27 24.0154 88.993 24.0154ZM95.6935 17.0273C95.9705 17.0273 96.2457 17.0931 96.4986 17.2263L100.114 19.1237L99.4263 15.1074C99.3294 14.5454 99.5164 13.9727 99.9249 13.5749L102.841 10.7451L98.8066 10.1605C98.2422 10.0793 97.7555 9.7245 97.5029 9.21447L95.6953 5.55802L93.8896 9.21288C93.6367 9.72317 93.1503 10.0777 92.5859 10.1589L88.569 10.7419L91.4848 13.5717C91.8934 13.9679 92.0804 14.5422 91.9834 15.1042L91.2978 19.1155L94.8889 17.2232C95.1378 17.0931 95.4148 17.0273 95.6935 17.0273Z" fill="#FAB400"/>
<path d="M123.396 1.65063L126.755 8.44818L134.269 9.53803L128.833 14.8135L130.114 22.2858L123.396 18.7573L116.695 22.2858L117.977 14.8135L112.54 9.53803L120.037 8.44818L123.396 1.65063Z" fill="#FAB400"/>
<path d="M116.695 24.0154C116.337 24.0154 115.98 23.9047 115.679 23.6869C115.144 23.2994 114.877 22.644 114.99 21.9936L116.115 15.4208L111.331 10.7783C110.861 10.3181 110.689 9.63135 110.892 9.00536C111.094 8.3791 111.638 7.92268 112.291 7.82582L118.887 6.86759L121.843 0.886294C122.424 -0.295106 124.365 -0.295106 124.947 0.886294L127.904 6.86919L134.517 7.82741C135.169 7.92268 135.711 8.37911 135.916 9.00696C136.118 9.63321 135.949 10.3216 135.476 10.7799L130.692 15.4224L131.819 21.9952C131.93 22.6437 131.663 23.2994 131.132 23.6869C130.597 24.0762 129.89 24.1263 129.308 23.8182L123.396 20.7135L117.504 23.8182C117.249 23.9496 116.972 24.0154 116.695 24.0154ZM123.396 17.0273C123.673 17.0273 123.948 17.0931 124.201 17.2263L127.816 19.1237L127.129 15.1074C127.032 14.5454 127.219 13.9727 127.628 13.5749L130.543 10.7451L126.509 10.1605C125.945 10.0793 125.458 9.7245 125.206 9.21447L123.398 5.55802L121.592 9.21288C121.339 9.72317 120.853 10.0777 120.289 10.1589L116.272 10.7419L119.187 13.5717C119.596 13.9679 119.783 14.5422 119.686 15.1042L119 19.1155L122.592 17.2232C122.84 17.0931 123.117 17.0273 123.396 17.0273Z" fill="#FAB400"/>
</svg>
