<svg width="277" height="53" viewBox="0 0 277 53" fill="none" xmlns="http://www.w3.org/2000/svg">
<path d="M74.1322 42.6756V52.6237H67.8929V20.2387H74.1322V21.7881C75.9903 20.58 78.1551 19.9281 80.3714 19.9094C87.4563 19.9094 92.6661 25.542 92.6661 32.2527C92.6661 38.9633 87.5049 44.5959 80.3714 44.5959C78.1456 44.5996 75.9707 43.9302 74.1322 42.6756ZM74.1322 29.2994V35.0256C74.6243 36.0736 75.3892 36.9699 76.3467 37.6208C77.3041 38.2716 78.419 38.6532 79.5745 38.7253C80.7299 38.7975 81.8836 38.5578 82.9146 38.0311C83.9457 37.5045 84.8161 36.7103 85.4349 35.7318C86.0537 34.7533 86.3981 33.6264 86.4319 32.4692C86.4658 31.3119 86.1879 30.1669 85.6274 29.1539C85.0669 28.1409 84.2443 27.2972 83.2458 26.7111C82.2473 26.1251 81.1097 25.8183 79.9519 25.8228C78.755 25.8059 77.5768 26.1221 76.5491 26.736C75.5215 27.3499 74.6846 28.2374 74.1322 29.2994Z" fill="black" fill-opacity="0.3"/>
<path d="M96.0458 13.7115C96.0254 13.2392 96.1019 12.7678 96.2704 12.3261C96.4389 11.8845 96.6961 11.482 97.0259 11.1433C97.3558 10.8047 97.7514 10.5371 98.1885 10.3571C98.6256 10.177 99.0949 10.0882 99.5675 10.0962C100.047 10.0879 100.523 10.1754 100.968 10.3536C101.412 10.5318 101.817 10.797 102.158 11.1338C102.499 11.4706 102.769 11.8721 102.953 12.3147C103.137 12.7574 103.23 13.2323 103.228 13.7115C103.218 14.6754 102.828 15.5963 102.142 16.2739C101.457 16.9516 100.531 17.3312 99.5675 17.3303C99.0974 17.3281 98.6325 17.2323 98.1999 17.0484C97.7672 16.8646 97.3756 16.5964 97.0477 16.2595C96.7199 15.9226 96.4624 15.5238 96.2904 15.0863C96.1184 14.6488 96.0352 14.1815 96.0458 13.7115ZM96.4236 20.2384H102.76V44.2212H96.4236V20.2384Z" fill="black" fill-opacity="0.3"/>
<path d="M106.51 32.1626C106.498 30.5484 106.808 28.948 107.423 27.4554C108.037 25.9628 108.944 24.6082 110.09 23.4711C111.236 22.3341 112.597 21.4375 114.095 20.8342C115.592 20.2309 117.195 19.933 118.809 19.958C121.015 19.9591 123.188 20.5069 125.131 21.5525V20.2388H131.329V42.8593C131.329 49.0986 125.928 52.4816 119.173 52.4816C114.76 52.4816 110.535 51.1679 107.765 49.0154L110.347 44.5578C112.98 46.244 116.047 47.1247 119.173 47.0916C123.536 47.0916 124.899 45.3585 125.086 42.5405C123.206 43.7429 121.026 44.3927 118.795 44.4157C111.613 44.4088 106.51 39.0604 106.51 32.1626ZM125.131 34.835V29.4866C124.607 28.3707 123.778 27.4258 122.739 26.7609C121.701 26.0961 120.496 25.7384 119.263 25.7293C118.411 25.721 117.567 25.8812 116.777 26.2004C115.988 26.5197 115.27 26.9918 114.663 27.5897C114.057 28.1875 113.575 28.8993 113.245 29.6841C112.915 30.4689 112.743 31.3112 112.739 32.1626C112.739 35.868 115.554 38.4503 119.218 38.4503C120.447 38.4823 121.659 38.1581 122.709 37.5166C123.758 36.8751 124.599 35.9438 125.131 34.835Z" fill="black" fill-opacity="0.3"/>
<path d="M135.089 32.1626C135.077 30.5484 135.387 28.948 136.002 27.4554C136.616 25.9628 137.523 24.6082 138.669 23.4711C139.815 22.3341 141.176 21.4375 142.674 20.8342C144.171 20.2309 145.774 19.933 147.388 19.958C149.599 19.9573 151.776 20.5051 153.724 21.5525V20.2388H159.918V42.8593C159.918 49.0986 154.521 52.4816 147.765 52.4816C143.353 52.4816 139.128 51.1679 136.358 49.0154L138.94 44.5578C141.572 46.2446 144.64 47.1253 147.765 47.0916C152.129 47.0916 153.492 45.3585 153.679 42.5405C151.799 43.7424 149.619 44.3921 147.388 44.4157C140.206 44.4088 135.089 39.0604 135.089 32.1626ZM153.724 34.835V29.4866C153.199 28.371 152.37 27.4262 151.332 26.7614C150.293 26.0966 149.088 25.7388 147.856 25.7293C147.004 25.721 146.16 25.8812 145.37 26.2004C144.581 26.5197 143.863 26.9918 143.256 27.5897C142.65 28.1875 142.168 28.8993 141.838 29.6841C141.508 30.4689 141.336 31.3112 141.332 32.1626C141.332 35.868 144.147 38.4503 147.811 38.4503C149.04 38.4819 150.252 38.1575 151.301 37.516C152.35 36.8746 153.192 35.9436 153.724 34.835Z" fill="black" fill-opacity="0.3"/>
<path d="M169.02 20.2388L175.311 36.2423L181.786 20.2388H188.372L174.559 52.6237H168.694L172.16 43.9894L162.077 20.2388H169.02Z" fill="black" fill-opacity="0.3"/>
<path d="M187.176 20.2388H193.887L200.001 36.433L206.057 20.2388H212.643L203.02 44.2216H196.708L187.176 20.2388Z" fill="black" fill-opacity="0.3"/>
<path d="M213.086 32.0654C213.086 25.3097 217.918 19.7222 225.474 19.7222C232.469 19.7222 237.783 24.9804 237.911 31.8886C237.96 32.4827 237.96 33.0797 237.911 33.6737H219C219.187 37.0533 222.424 39.2578 225.897 39.2578C228.76 39.2578 230.449 38.4606 232.421 36.8315L235.849 40.4467C233.076 43.3549 230.303 44.7171 225.897 44.7171C217.779 44.6929 213.086 38.6374 213.086 32.0654ZM219.325 29.2023H231.436C230.826 26.9527 228.663 24.9804 225.381 24.9804C221.578 24.9804 219.984 26.9042 219.325 29.2023Z" fill="black" fill-opacity="0.3"/>
<path d="M239.222 41.643L242.289 36.6655C245.043 38.5006 248.27 39.4954 251.579 39.5286C254.726 39.5286 256.321 38.7313 256.321 37.3726C256.321 36.4783 255.568 35.8232 253.974 35.4939L247.388 34.0866C242.556 33.0467 240.348 30.7555 240.348 27.0016C240.348 23.012 243.728 19.6775 250.723 19.6775C254.944 19.6775 258.695 20.9011 261.281 22.4955L258.418 27.2824C256.307 26.1559 253.492 24.9358 250.532 24.9358C247.86 24.9358 246.31 25.5943 246.31 26.811C246.31 27.6117 246.875 28.1281 248.421 28.4089L253.967 29.4488C259.974 30.6204 262.286 33.2963 262.286 36.9116C262.286 42.1109 257.087 44.8423 251.395 44.8423C247.119 44.9249 242.904 43.8172 239.222 41.643Z" fill="black" fill-opacity="0.3"/>
<path d="M263.534 20.2389H267.1V13.6218L273.34 9.58716V20.2389H277V25.6843H273.343V44.2252H267.104V25.6843H263.53V20.2389H263.534Z" fill="black" fill-opacity="0.3"/>
<path d="M52.2707 24.0966C52.1666 22.5743 51.917 21.0654 51.5255 19.5905C49.7403 13.0047 45.9795 7.8227 40.2464 4.12424C36.6352 1.7757 32.4874 0.381551 28.1908 0.0722191C26.3857 -0.0596265 24.572 -0.0108573 22.7766 0.217801C20.8851 0.46815 19.0259 0.920177 17.2306 1.56616C12.45 3.2906 8.27772 6.37474 5.22689 10.4392C2.17606 14.5037 0.379755 19.3713 0.0589258 24.4433C0 25.3757 0 26.315 0 27.2509V50.0032C0 50.5943 0.234818 51.1612 0.652796 51.5792C1.07077 51.9972 1.63767 52.232 2.22878 52.232H11.0191C11.5692 52.2286 12.099 52.0235 12.5079 51.6554C12.9168 51.2874 13.1764 50.7822 13.2375 50.2354C13.2954 50.0218 13.3256 49.8016 13.3276 49.5803V49.0535C13.3225 49.0132 13.3225 48.9724 13.3276 48.9321V48.8732C13.3876 48.8891 13.444 48.9162 13.494 48.9529C16.782 50.7711 20.4234 51.8588 24.17 52.1419C25.6706 52.2528 27.178 52.2378 28.6761 52.0968C32.2028 51.772 35.6257 50.7286 38.7339 49.0308C41.8421 47.3331 44.5698 45.0169 46.749 42.225C49.8551 38.3176 51.7558 33.5901 52.2187 28.6201C52.3755 27.1171 52.3929 25.6028 52.2707 24.0966ZM30.8494 38.634C30.8339 38.7141 30.7907 38.7862 30.7273 38.8375C30.6639 38.8889 30.5844 38.9162 30.5028 38.9147H21.8372C21.7556 38.9162 21.6762 38.8889 21.6127 38.8375C21.5493 38.7862 21.5061 38.7141 21.4906 38.634V38.5785V38.2562C21.4887 37.8584 21.5329 37.4618 21.6223 37.0742C21.6778 36.9425 21.7124 36.7865 21.7679 36.6409C21.8234 36.4953 21.8788 36.3601 21.9343 36.218C21.9897 36.0759 22.0799 35.9477 22.1561 35.8263L22.2809 35.6392C22.3624 35.518 22.4515 35.4023 22.5478 35.2925C22.6483 35.1678 22.7488 35.0603 22.8494 34.9459C23.3709 34.433 24.0046 34.0485 24.7003 33.8229C24.101 33.4965 23.6272 32.98 23.3537 32.3548C23.0802 31.7295 23.0226 31.031 23.1898 30.3694C23.357 29.7077 23.7395 29.1205 24.2772 28.7003C24.8149 28.28 25.4772 28.0506 26.1596 28.0481C26.9744 28.0543 27.7544 28.379 28.3329 28.9528C28.6678 29.2898 28.92 29.7 29.0695 30.151C29.219 30.6019 29.2619 31.0815 29.1947 31.5518C29.1275 32.0221 28.9521 32.4705 28.6823 32.8616C28.4124 33.2526 28.0555 33.5758 27.6397 33.8055C28.5757 34.1141 29.3902 34.7107 29.9667 35.51C30.5432 36.3094 30.8522 37.2706 30.8494 38.2562C30.8494 38.381 30.8494 38.5161 30.8494 38.634ZM45.7888 19.7569H6.56503C6.49151 19.7564 6.41916 19.7385 6.35392 19.7046C6.28869 19.6706 6.23244 19.6217 6.1898 19.5618C6.14716 19.5019 6.11935 19.4328 6.10866 19.36C6.09797 19.2873 6.10469 19.213 6.12829 19.1434C7.59186 14.9957 10.3059 11.4041 13.8964 8.86361C17.4868 6.32313 21.7769 4.95886 26.1752 4.95886C30.5735 4.95886 34.8636 6.32313 38.454 8.86361C42.0445 11.4041 44.7586 14.9957 46.2221 19.1434C46.2456 19.2128 46.2524 19.2867 46.2419 19.3592C46.2314 19.4316 46.2039 19.5006 46.1616 19.5604C46.1194 19.6203 46.0636 19.6692 45.9988 19.7034C45.934 19.7375 45.8621 19.7559 45.7888 19.7569Z" fill="black" fill-opacity="0.3"/>
</svg>
